<?xml version="1.0" encoding="iso-8859-1"?>
<!-- Uploaded to: SVG Repo, www.svgrepo.com, Generator: SVG Repo Mixer Tools -->
<svg height="800px" width="800px" version="1.1" id="Layer_1" xmlns="http://www.w3.org/2000/svg" xmlns:xlink="http://www.w3.org/1999/xlink" 
	 viewBox="0 0 512 512" xml:space="preserve">
<path style="fill:#F6BB42;" d="M256.011,0c-141.375,0-256,114.617-256,256c0,141.375,114.625,256,256,256
	c141.383,0,255.977-114.625,255.977-256C511.987,114.617,397.394,0,256.011,0z M421.925,421.938
	c-21.562,21.562-46.625,38.469-74.562,50.297c-28.906,12.234-59.656,18.422-91.352,18.422c-31.688,0-62.406-6.188-91.328-18.422
	c-27.953-11.828-53.047-28.734-74.609-50.297c-21.547-21.562-38.469-46.656-50.281-74.594C27.542,318.422,21.354,287.688,21.354,256
	s6.188-62.422,18.438-91.336c11.812-27.938,28.734-53.039,50.281-74.602c21.562-21.555,46.656-38.477,74.609-50.297
	c28.922-12.227,59.641-18.43,91.328-18.43c31.695,0,62.445,6.203,91.352,18.43c27.938,11.82,53,28.742,74.562,50.297
	c21.562,21.562,38.5,46.664,50.312,74.602c12.219,28.914,18.438,59.648,18.438,91.336s-6.219,62.422-18.438,91.344
	C460.425,375.281,443.487,400.375,421.925,421.938z"/>
<path style="fill:#FFCE54;" d="M330.644,256c0,41.219-33.406,74.625-74.633,74.625c-41.188,0-74.594-33.406-74.594-74.625
	c0-41.211,33.406-74.609,74.594-74.609C297.237,181.391,330.644,214.789,330.644,256z"/>
</svg>